HIERARCHY
ROOT Hips
{
    OFFSET 0.000000 0.000000 0.000000
    CHANNELS 6 Xposition Yposition Zposition Zrotation Xrotation Yrotation
    JOINT Spine
    {
        OFFSET -0.000000 14.517291 0.000000
        CHANNELS 3 Zrotation Xrotation Yrotation
        JOINT Spine1
        {
            OFFSET -0.000000 37.558300 0.000000
            CHANNELS 3 Zrotation Xrotation Yrotation
            JOINT Neck
            {
                OFFSET -0.000000 37.404057 3.400369
                CHANNELS 3 Zrotation Xrotation Yrotation
                JOINT Head
                {
                    OFFSET -0.000000 24.785618 -3.540803
                    CHANNELS 3 Zrotation Xrotation Yrotation
                    End Site
                    {
                        OFFSET -0.000000 35.408028 0.000000
                    }
                }
            }
            JOINT LeftShoulder
            {
                OFFSET 6.992933 33.973492 -0.192664
                CHANNELS 3 Zrotation Xrotation Yrotation
                JOINT LeftArm
                {
                    OFFSET 21.527611 0.000000 0.000000
                    CHANNELS 3 Zrotation Xrotation Yrotation
                    JOINT LeftForeArm
                    {
                        OFFSET 56.353916 0.000000 0.000000
                        CHANNELS 3 Zrotation Xrotation Yrotation
                        JOINT LeftHand
                        {
                            OFFSET 47.774071 0.000000 0.000000
                            CHANNELS 3 Zrotation Xrotation Yrotation
                            End Site
                            {
                                OFFSET 26.556021 0.000000 0.000000
                            }
                        }
                    }
                }
            }
            JOINT RightShoulder
            {
                OFFSET -7.065357 33.973492 -0.192664
                CHANNELS 3 Zrotation Xrotation Yrotation
                JOINT RightArm
                {
                    OFFSET -21.527611 0.000000 0.000000
                    CHANNELS 3 Zrotation Xrotation Yrotation
                    JOINT RightForeArm
                    {
                        OFFSET -56.353916 0.000000 0.000000
                        CHANNELS 3 Zrotation Xrotation Yrotation
                        JOINT RightHand
                        {
                            OFFSET -47.774071 0.000000 0.000000
                            CHANNELS 3 Zrotation Xrotation Yrotation
                            End Site
                            {
                                OFFSET -26.556021 0.000000 0.000000
                            }
                        }
                    }
                }
            }
        }
    }
    JOINT LeftUpLeg
    {
        OFFSET 17.704014 0.000000 0.000000
        CHANNELS 3 Zrotation Xrotation Yrotation
        JOINT LeftLeg
        {
            OFFSET -0.000000 -81.181816 0.000000
            CHANNELS 3 Zrotation Xrotation Yrotation
            JOINT LeftFoot
            {
                OFFSET -0.000000 -62.821102 0.000000
                CHANNELS 3 Zrotation Xrotation Yrotation
                JOINT LeftToeBase
                {
                    OFFSET -0.000000 -11.507608 26.556021
                    CHANNELS 3 Zrotation Xrotation Yrotation
                    End Site
                    {
                        OFFSET -0.000000 0.000000 7.081605
                    }
                }
            }
        }
    }
    JOINT RightUpLeg
    {
        OFFSET -17.704014 0.000000 0.000000
        CHANNELS 3 Zrotation Xrotation Yrotation
        JOINT RightLeg
        {
            OFFSET -0.000000 -81.181816 0.000000
            CHANNELS 3 Zrotation Xrotation Yrotation
            JOINT RightFoot
            {
                OFFSET -0.000000 -62.821102 0.000000
                CHANNELS 3 Zrotation Xrotation Yrotation
                JOINT RightToeBase
                {
                    OFFSET -0.000000 -11.507608 26.556021
                    CHANNELS 3 Zrotation Xrotation Yrotation
                    End Site
                    {
                        OFFSET -0.000000 0.000000 7.081605
                    }
                }
            }
        }
    }
}
MOTION
Frames:    8
Frame Time:    0.008333
-14.869052    151.578461    -98.972107    2.752986    -4.333620    47.633392    -2.442729    0.353707    0.919737    -0.502046    2.526908    0.314877    -2.159779    5.621631    -20.610191    17.062622    0.119766    -18.944723    2.676932    7.906705    -13.562237    -34.586746    23.288950    -49.976124    -2.560361    -27.116371    -120.821327    -7.943749    -30.303930    -12.590379    -3.376827    10.481969    -3.332582    22.528139    7.010647    37.087482    0.187296    20.779390    92.415611    -25.568920    15.550001    23.068102    16.461050    -4.728405    -7.818892    -18.649670    40.982899    -20.888824    7.295816    -31.547714    52.293629    0.000000    0.000000    0.000000    -25.274015    -16.202969    -26.522476    9.921218    29.708603    -17.335577    4.779627    4.958458    -7.891361    0.000000    0.000000    0.000000    
-14.882125    151.578827    -98.970192    2.745207    -4.327765    47.647167    -2.433329    0.342944    0.925151    -0.524770    2.532334    0.317263    -2.116469    5.627503    -20.611866    17.027140    0.099165    -18.952677    2.700241    7.913596    -13.581481    -34.610497    23.288055    -49.974564    -2.563748    -27.117210    -120.823334    -7.941015    -30.311165    -12.578619    -3.331529    10.447936    -3.342612    22.650869    6.877044    37.086269    0.179937    20.476732    91.625374    -25.257317    15.166197    23.716671    16.464811    -4.747846    -7.813803    -18.641256    40.987320    -20.880449    7.275224    -31.548311    52.271175    0.000000    0.000000    0.000000    -25.270319    -16.205555    -26.520037    9.929828    29.698830    -17.355314    4.753907    4.956219    -7.888270    0.000000    0.000000    0.000000    
-14.892197    151.584579    -98.968292    2.737538    -4.322320    47.662457    -2.427314    0.331081    0.927800    -0.530925    2.541353    0.318383    -2.116145    5.628945    -20.621284    17.027664    0.100922    -18.962860    2.703237    7.922684    -13.582805    -34.616055    23.295704    -49.987358    -2.566777    -27.119686    -120.821701    -7.942253    -30.318432    -12.568923    -3.304511    10.425655    -3.368692    22.798002    6.713076    37.121487    0.196052    20.177738    90.766953    -24.932270    14.762872    24.393181    16.467554    -4.761585    -7.815282    -18.626066    40.982895    -20.920126    7.286263    -31.534750    52.293865    0.000000    0.000000    0.000000    -25.267618    -16.202887    -26.532112    9.928492    29.686863    -17.358191    4.760878    4.958619    -7.887929    0.000000    0.000000    0.000000    
-14.902475    151.588104    -98.967972    2.734005    -4.311956    47.674210    -2.432016    0.322018    0.933989    -0.534954    2.546614    0.320661    -2.105592    5.621386    -20.631021    17.018990    0.112836    -18.976963    2.707678    7.934991    -13.588946    -34.631809    23.299679    -49.992390    -2.568353    -27.114496    -120.823578    -7.943499    -30.315903    -12.569624    -3.269291    10.402300    -3.397337    22.926043    6.584739    37.162594    0.159877    19.810139    89.876030    -24.532772    14.353396    25.101376    16.465599    -4.772313    -7.809920    -18.616652    40.970310    -20.926523    7.268605    -31.526649    52.274445    0.000000    0.000000    0.000000    -25.274605    -16.205040    -26.522421    9.943141    29.678082    -17.370899    4.765788    4.956529    -7.910917    0.000000    0.000000    0.000000    
-14.911892    151.595459    -98.966232    2.726885    -4.306992    47.683434    -2.429485    0.306934    0.936053    -0.535854    2.561680    0.321636    -2.102540    5.629391    -20.635166    17.023891    0.104461    -18.979887    2.710344    7.941978    -13.589562    -34.642776    23.300627    -49.992558    -2.575531    -27.104671    -120.826530    -7.941639    -30.317015    -12.575662    -3.240768    10.391830    -3.420443    23.041603    6.477477    37.219086    0.094628    19.391455    88.957657    -24.127125    13.919467    25.832203    16.473066    -4.781020    -7.794922    -18.605995    40.962547    -20.956182    7.273719    -31.514328    52.287979    0.000000    0.000000    0.000000    -25.270798    -16.206467    -26.530649    9.942341    29.667696    -17.351511    4.758902    4.962698    -7.924940    0.000000    0.000000    0.000000    
-14.918223    151.602142    -98.967804    2.724636    -4.302283    47.691185    -2.430896    0.297969    0.942842    -0.533387    2.570818    0.323850    -2.112311    5.643520    -20.643042    17.049301    0.099726    -18.983335    2.706611    7.943206    -13.602158    -34.659248    23.304579    -49.978207    -2.583409    -27.091854    -120.834061    -7.936476    -30.318338    -12.563863    -3.216764    10.375115    -3.446228    23.174240    6.360024    37.278873    0.041276    18.982342    87.995766    -23.702169    13.487209    26.584417    16.468470    -4.787437    -7.789161    -18.587788    40.956501    -20.947832    7.242993    -31.521385    52.256176    0.000000    0.000000    0.000000    -25.270985    -16.206387    -26.533276    9.940481    29.659054    -17.352077    4.765994    4.969885    -7.931002    0.000000    0.000000    0.000000    
-14.928703    151.609833    -98.970680    2.713766    -4.288783    47.697887    -2.428970    0.284521    0.942778    -0.537297    2.567835    0.324055    -2.115521    5.634504    -20.646624    17.046610    0.132725    -18.991865    2.700958    7.947631    -13.600745    -34.667877    23.308834    -49.960339    -2.589961    -27.079165    -120.840317    -7.924409    -30.318541    -12.550787    -3.197325    10.341634    -3.452007    23.322596    6.235117    37.328449    0.007187    18.591751    86.994904    -23.288065    13.051371    27.365192    16.467934    -4.809542    -7.782091    -18.581997    40.951733    -20.952768    7.238560    -31.494219    52.249119    0.000000    0.000000    0.000000    -25.273151    -16.217508    -26.527143    9.950371    29.646763    -17.354412    4.750102    4.980316    -7.942237    0.000000    0.000000    0.000000    
-14.934715    151.614594    -98.968666    2.712517    -4.290224    47.705578    -2.426591    0.286415    0.946278    -0.535917    2.565369    0.325072    -2.120473    5.647147    -20.657309    17.056005    0.141041    -19.002840    2.701622    7.952385    -13.599566    -34.669388    23.315987    -49.969666    -2.530592    -27.128319    -120.778885    -8.112896    -30.247150    -12.643744    -3.182838    10.318690    -3.459064    23.469809    6.114906    37.385216    -0.062207    18.176445    85.973770    -22.814379    12.636892    28.169579    16.474346    -4.809258    -7.783208    -18.579779    40.941212    -20.970634    7.239141    -31.486130    52.260231    0.000000    0.000000    0.000000    -25.264891    -16.209215    -26.515614    9.953599    29.629276    -17.351793    4.753976    4.979424    -7.961504    0.000000    0.000000    0.000000    
